<svg width="25" height="25" viewBox="0 0 25 25" fill="none" xmlns="http://www.w3.org/2000/svg">
<path d="M12.3286 22.75C7.36476 22.75 3.32861 18.7139 3.32861 13.75C3.32861 8.78614 7.36476 4.75 12.3286 4.75C17.2925 4.75 21.3286 8.78614 21.3286 13.75C21.3286 13.8839 21.2125 14 21.0786 14C20.9448 14 20.8286 13.8839 20.8286 13.75C20.8286 9.06386 17.0148 5.25 12.3286 5.25C7.64247 5.25 3.82861 9.06386 3.82861 13.75C3.82861 18.4361 7.64247 22.25 12.3286 22.25C12.4625 22.25 12.5786 22.3661 12.5786 22.5C12.5786 22.6339 12.4625 22.75 12.3286 22.75Z" fill="#121226" stroke="#5E5D6C"/>
<path d="M12.3286 13.75C12.1948 13.75 12.0786 13.6339 12.0786 13.5V8.5C12.0786 8.36614 12.1948 8.25 12.3286 8.25C12.4625 8.25 12.5786 8.36614 12.5786 8.5V13.5C12.5786 13.6339 12.4625 13.75 12.3286 13.75Z" fill="#121226" stroke="#5E5D6C"/>
<path d="M15.3286 2.75H9.32861C9.19476 2.75 9.07861 2.63386 9.07861 2.5C9.07861 2.36614 9.19476 2.25 9.32861 2.25H15.3286C15.4625 2.25 15.5786 2.36614 15.5786 2.5C15.5786 2.63386 15.4625 2.75 15.3286 2.75Z" fill="#121226" stroke="#5E5D6C"/>
<path d="M19.3286 22.25C18.9186 22.25 18.5786 21.91 18.5786 21.5V17.5C18.5786 17.09 18.9186 16.75 19.3286 16.75C19.7386 16.75 20.0786 17.09 20.0786 17.5V21.5C20.0786 21.91 19.7386 22.25 19.3286 22.25Z" fill="#5E5D6C"/>
<path d="M16.3286 21.75C16.1948 21.75 16.0786 21.6339 16.0786 21.5V17.5C16.0786 17.3661 16.1948 17.25 16.3286 17.25C16.4625 17.25 16.5786 17.3661 16.5786 17.5V21.5C16.5786 21.6339 16.4625 21.75 16.3286 21.75Z" fill="#121226" stroke="#5E5D6C"/>
</svg>
