<svg width="25" height="25" viewBox="0 0 25 25" fill="none" xmlns="http://www.w3.org/2000/svg">
<path d="M12.3286 14.25C11.9186 14.25 11.5786 13.91 11.5786 13.5V8.5C11.5786 8.09 11.9186 7.75 12.3286 7.75C12.7386 7.75 13.0786 8.09 13.0786 8.5V13.5C13.0786 13.91 12.7386 14.25 12.3286 14.25Z" fill="white"/>
<path d="M12.3286 23.25C7.08861 23.25 2.82861 18.99 2.82861 13.75C2.82861 8.51 7.08861 4.25 12.3286 4.25C17.5686 4.25 21.8286 8.51 21.8286 13.75C21.8286 14.16 21.4886 14.5 21.0786 14.5C20.6686 14.5 20.3286 14.16 20.3286 13.75C20.3286 9.34 16.7386 5.75 12.3286 5.75C7.91861 5.75 4.32861 9.34 4.32861 13.75C4.32861 18.16 7.91861 21.75 12.3286 21.75C12.7386 21.75 13.0786 22.09 13.0786 22.5C13.0786 22.91 12.7386 23.25 12.3286 23.25Z" fill="white"/>
<path d="M15.3286 3.25H9.32861C8.91861 3.25 8.57861 2.91 8.57861 2.5C8.57861 2.09 8.91861 1.75 9.32861 1.75H15.3286C15.7386 1.75 16.0786 2.09 16.0786 2.5C16.0786 2.91 15.7386 3.25 15.3286 3.25Z" fill="white"/>
<path d="M16.4786 22.52C16.1286 22.52 15.8086 22.44 15.5186 22.27C14.8586 21.89 14.4786 21.12 14.4786 20.16V17.85C14.4786 16.89 14.8586 16.12 15.5186 15.74C16.1786 15.36 17.0286 15.42 17.8586 15.89L19.8586 17.05C20.6886 17.53 21.1686 18.24 21.1686 19C21.1686 19.76 20.6886 20.47 19.8586 20.95L17.8586 22.11C17.3986 22.38 16.9286 22.52 16.4786 22.52ZM16.4886 16.98C16.4086 16.98 16.3286 17 16.2686 17.03C16.0886 17.13 15.9786 17.44 15.9786 17.84V20.15C15.9786 20.55 16.0886 20.86 16.2686 20.96C16.4486 21.06 16.7686 21.01 17.1086 20.81L19.1086 19.65C19.4586 19.45 19.6686 19.2 19.6686 19C19.6686 18.8 19.4586 18.55 19.1086 18.35L17.1086 17.19C16.8786 17.05 16.6586 16.98 16.4886 16.98Z" fill="white"/>
</svg>
